# xmcd
#
# Track frame offsets: 
#        150
#        11185
#        21095
#        30925
#        41805
#        54160
#        65320
#        78238
#        88602
#        100139
#        113239
#        124867
#        136847
#        147177
#        160273
#        173620
#        186809
#        199640
#        209620
#        220997
#
# Disc length: 3084 seconds
#
# Revision: 0
# Processed by: cddbd v1.5.2PL0 Copyright (c) Steve Scherf et al.
# Submitted via: ExactAudioCopy v0.95b3
#
DISCID=0d0c0a14
DTITLE=Little Richard  - Tutti Frutti  [Flac]
DYEAR=1900
DGENRE=
TTITLE0=Tutti Frutti
TTITLE1=Long Tall Sally
TTITLE2=Ready Teddy
TTITLE3=Rip it Up
TTITLE4=Slippin' and Slidin'
TTITLE5=She's Got It
TTITLE6=Little Richard Boogie
TTITLE7=Get Rich Quick
TTITLE8=Please Have Mercy On Me
TTITLE9=Thinkin' Bout My Mother
TTITLE10=Why Did You Leave Me ?
TTITLE11=I'm Just A Lonely Guy
TTITLE12=Heeby-Jeebies
TTITLE13=Every Hour
TTITLE14=Directly From My Heart
TTITLE15=I Brought It All On Myself
TTITLE16=Ain't That Good News
TTITLE17=Ain't Nothing Happening
TTITLE18=I Love My Baby
TTITLE19=Taxi Blues
EXTD=
EXTT0=
EXTT1=
EXTT2=
EXTT3=
EXTT4=
EXTT5=
EXTT6=
EXTT7=
EXTT8=
EXTT9=
EXTT10=
EXTT11=
EXTT12=
EXTT13=
EXTT14=
EXTT15=
EXTT16=
EXTT17=
EXTT18=
EXTT19=
PLAYORDER=
